<svg version="1.2" xmlns="http://www.w3.org/2000/svg" viewBox="0 0 703 135" width="703" height="135">
	<title>Proyecto nuevo</title>
	<style>
		.s0 { fill: #000000 } 
	</style>
	<path id="- IRVYN -" class="s0" aria-label="- IRVYN -"  d="m56.4 84.2h-42.4v-12.6h42.4zm108.4 32.8h-54.8v-12.7h20.3l-0.1-79.5h-20.2v-12.8h54.8v12.8h-20.2v79.5h20.2zm33.5 0h-14.4v-105h46.1q9.9 0 18 4.3 8.1 4.2 12.9 12 4.8 7.7 4.8 18 0 10.5-5.4 18.6-5.3 8-14.3 11.9l11.3 22.7q1.2 2.5 2.5 3.7 1.5 1 4.2 1h7.5v12.8h-9.7q-5.9 0-10.4-3-4.3-3-7.2-8.1l-12.6-25.7q-1.5 0.2-3.3 0.3-1.6 0-3.4 0h-26.6zm0-92.2v43h29.7q6.5 0 11.8-2.5 5.3-2.6 8.3-7.4 3.2-4.8 3.2-11.5 0-6.9-3.2-11.7-3.1-4.8-8.3-7.4-5.3-2.5-11.6-2.5zm126.5 94q-5.3 0-9.4-2.7-4-2.8-6.6-9.1l-34.3-95h15.8l30.4 89.1q1.1 2.6 1.9 3.5 1 0.9 2.2 0.9 1.5 0 2.2-0.9 0.9-0.9 1.9-3.5l31.1-89.1h15.1l-34.3 95q-2.2 6.1-6.5 9-4.2 2.8-9.6 2.8zm110.4-1.8h-14.4v-30.4q-10.9-1.5-18.6-7.1-7.6-5.7-11.7-14.7-4-9-4-20.2v-32.6h14.4v33.8q0 7.8 3.1 14.4 3.3 6.4 9.3 10.5 6.2 3.9 14.9 3.9 8.7 0 14.7-3.9 6.1-4.1 9.3-10.5 3.1-6.6 3.1-14.4v-33.8h14.4v32.6q0 11.2-4 20.2-4 9-11.9 14.7-7.6 5.7-18.6 7.1zm127.2 1.8q-8.4 0-14.8-3.8-6.3-3.9-9.9-10.5-3.6-6.6-3.6-14.8v-52.4q0-4-1.9-7.3-2-3.3-5.3-5.3-3.3-1.9-7.2-1.9-3.9 0-7.2 1.9-3.2 2-5.1 5.3-1.8 3.3-1.8 7.3v79.7h-14.4v-77.8q0-8.2 3.6-14.8 3.6-6.6 10-10.3 6.5-3.9 14.9-3.9 8.5 0 15 3.9 6.5 3.7 10 10.3 3.6 6.6 3.6 14.9v52.3q0 4.1 2 7.4 1.9 3.3 5.1 5.2 3.3 2 7 2 3.8 0 6.9-2 3.2-1.9 5-5.2 1.9-3.3 1.9-7.4v-79.6h14.5v77.7q0 8.2-3.7 14.8-3.6 6.6-9.8 10.5-6.4 3.7-14.8 3.7zm126.9-34.6h-42.4v-12.6h42.4z"/>
</svg>